<svg width="1200" height="500" aria-label="A chart." style="overflow: hidden;"><defs id="_ABSTRACT_RENDERER_ID_0"><clipPath id="_ABSTRACT_RENDERER_ID_1"><rect x="180" y="96" width="841" height="309"></rect></clipPath></defs><rect x="0" y="0" width="1200" height="500" stroke="none" stroke-width="0" fill="#ffffff"></rect><g><rect x="180" y="96" width="841" height="309" stroke="none" stroke-width="0" fill-opacity="0" fill="#ffffff"></rect><g clip-path="url(file:///E:/College/4th%20Year/Visdat/Tugas/TugasBesar1_Visdat/graph2.html#_ABSTRACT_RENDERER_ID_1)"><g><rect x="180" y="404" width="841" height="1" stroke="none" stroke-width="0" fill="#cccccc"></rect><rect x="180" y="353" width="841" height="1" stroke="none" stroke-width="0" fill="#cccccc"></rect><rect x="180" y="301" width="841" height="1" stroke="none" stroke-width="0" fill="#cccccc"></rect><rect x="180" y="250" width="841" height="1" stroke="none" stroke-width="0" fill="#cccccc"></rect><rect x="180" y="199" width="841" height="1" stroke="none" stroke-width="0" fill="#cccccc"></rect><rect x="180" y="147" width="841" height="1" stroke="none" stroke-width="0" fill="#cccccc"></rect><rect x="180" y="96" width="841" height="1" stroke="none" stroke-width="0" fill="#cccccc"></rect><rect x="180" y="378" width="841" height="1" stroke="none" stroke-width="0" fill="#ebebeb"></rect><rect x="180" y="327" width="841" height="1" stroke="none" stroke-width="0" fill="#ebebeb"></rect><rect x="180" y="276" width="841" height="1" stroke="none" stroke-width="0" fill="#ebebeb"></rect><rect x="180" y="224" width="841" height="1" stroke="none" stroke-width="0" fill="#ebebeb"></rect><rect x="180" y="173" width="841" height="1" stroke="none" stroke-width="0" fill="#ebebeb"></rect><rect x="180" y="122" width="841" height="1" stroke="none" stroke-width="0" fill="#ebebeb"></rect></g><g><rect x="202" y="339" width="63" height="65" stroke="none" stroke-width="0" fill="#ff0000"></rect><rect x="307" y="364" width="63" height="40" stroke="none" stroke-width="0" fill="#ff0000"></rect><rect x="412" y="327" width="63" height="77" stroke="none" stroke-width="0" fill="#ff0000"></rect><rect x="517" y="340" width="63" height="64" stroke="none" stroke-width="0" fill="#ff0000"></rect><rect x="622" y="305" width="63" height="99" stroke="none" stroke-width="0" fill="#ff0000"></rect><rect x="727" y="291" width="63" height="113" stroke="none" stroke-width="0" fill="#ff0000"></rect><rect x="832" y="146" width="63" height="258" stroke="none" stroke-width="0" fill="#ff0000"></rect><rect x="937" y="224" width="63" height="180" stroke="none" stroke-width="0" fill="#ff0000"></rect></g><g><rect x="180" y="404" width="841" height="1" stroke="none" stroke-width="0" fill="#333333"></rect></g></g><g></g><g><g><text text-anchor="middle" x="233" y="426.75" font-family="Crimson Text" font-size="15" stroke="none" stroke-width="0" fill="#222222">2010-2011</text></g><g><text text-anchor="middle" x="338" y="426.75" font-family="Crimson Text" font-size="15" stroke="none" stroke-width="0" fill="#222222">2011-2012</text></g><g><text text-anchor="middle" x="443" y="426.75" font-family="Crimson Text" font-size="15" stroke="none" stroke-width="0" fill="#222222">2012-2013</text></g><g><text text-anchor="middle" x="548" y="426.75" font-family="Crimson Text" font-size="15" stroke="none" stroke-width="0" fill="#222222">2013-2014</text></g><g><text text-anchor="middle" x="653" y="426.75" font-family="Crimson Text" font-size="15" stroke="none" stroke-width="0" fill="#222222">2014-2015</text></g><g><text text-anchor="middle" x="758" y="426.75" font-family="Crimson Text" font-size="15" stroke="none" stroke-width="0" fill="#222222">2015-2016</text></g><g><text text-anchor="middle" x="863" y="426.75" font-family="Crimson Text" font-size="15" stroke="none" stroke-width="0" fill="#222222">2016-2017</text></g><g><text text-anchor="middle" x="968" y="426.75" font-family="Crimson Text" font-size="15" stroke="none" stroke-width="0" fill="#222222">2017-2018</text></g><g><text text-anchor="end" x="165" y="409.75" font-family="Crimson Texts" font-size="15" stroke="none" stroke-width="0" fill="#444444">0</text></g><g><text text-anchor="end" x="165" y="358.4167" font-family="Crimson Texts" font-size="15" stroke="none" stroke-width="0" fill="#444444">500,000</text></g><g><text text-anchor="end" x="165" y="307.0833" font-family="Crimson Texts" font-size="15" stroke="none" stroke-width="0" fill="#444444">1,000,000</text></g><g><text text-anchor="end" x="165" y="255.75" font-family="Crimson Texts" font-size="15" stroke="none" stroke-width="0" fill="#444444">1,500,000</text></g><g><text text-anchor="end" x="165" y="204.4167" font-family="Crimson Texts" font-size="15" stroke="none" stroke-width="0" fill="#444444">2,000,000</text></g><g><text text-anchor="end" x="165" y="153.0833" font-family="Crimson Texts" font-size="15" stroke="none" stroke-width="0" fill="#444444">2,500,000</text></g><g><text text-anchor="end" x="165" y="101.75" font-family="Crimson Texts" font-size="15" stroke="none" stroke-width="0" fill="#444444">3,000,000</text></g></g></g><g></g></svg>