<svg width="3100" height="2800" aria-label="A chart." style="overflow: hidden;"><defs id="_ABSTRACT_RENDERER_ID_0"><clipPath id="_ABSTRACT_RENDERER_ID_1"><rect x="592" y="535" width="1916" height="1731"></rect></clipPath></defs><rect x="0" y="0" width="3100" height="2800" stroke="none" stroke-width="0" fill="#ffffff"></rect><g><rect x="2558" y="535" width="492" height="779" stroke="none" stroke-width="0" fill-opacity="0" fill="#ffffff"></rect><g><rect x="2558" y="535" width="492" height="50" stroke="none" stroke-width="0" fill-opacity="0" fill="#ffffff"></rect><g><text text-anchor="start" x="2677" y="577.5" font-family="Crimson Text" font-size="50" stroke="none" stroke-width="0" fill="#222222">Thailand</text></g><path d="M2558,560L2658,560" stroke="#bdbdbd" stroke-width="15" fill-opacity="1" fill="none"></path><circle cx="2608" cy="560" r="25" stroke="none" stroke-width="0" fill-opacity="0" fill="#bdbdbd"></circle></g><g><rect x="2558" y="616" width="492" height="50" stroke="none" stroke-width="0" fill-opacity="0" fill="#ffffff"></rect><g><text text-anchor="start" x="2677" y="658.5" font-family="Crimson Text" font-size="50" stroke="none" stroke-width="0" fill="#222222">Malaysia</text></g><path d="M2558,641L2658,641" stroke="#cfd8dd" stroke-width="15" fill-opacity="1" fill="none"></path><circle cx="2608" cy="641" r="25" stroke="none" stroke-width="0" fill-opacity="0" fill="#cfd8dd"></circle></g><g><rect x="2558" y="697" width="492" height="50" stroke="none" stroke-width="0" fill-opacity="0" fill="#ffffff"></rect><g><text text-anchor="start" x="2677" y="739.5" font-family="Crimson Text" font-size="50" stroke="none" stroke-width="0" fill="#222222">Singapura</text></g><path d="M2558,722L2658,722" stroke="#bdbdbd" stroke-width="15" fill-opacity="1" fill="none"></path><circle cx="2608" cy="722" r="25" stroke="none" stroke-width="0" fill-opacity="0" fill="#bdbdbd"></circle></g><g><rect x="2558" y="778" width="492" height="50" stroke="none" stroke-width="0" fill-opacity="0" fill="#ffffff"></rect><g><text text-anchor="start" x="2677" y="820.5" font-family="Crimson Text" font-size="50" stroke="none" stroke-width="0" fill="#222222">Indonesia</text></g><path d="M2558,803L2658,803" stroke="#ff0000" stroke-width="25" fill-opacity="1" fill="none"></path><circle cx="2608" cy="803" r="25" stroke="none" stroke-width="0" fill="#ff0000"></circle></g><g><rect x="2558" y="859" width="492" height="50" stroke="none" stroke-width="0" fill-opacity="0" fill="#ffffff"></rect><g><text text-anchor="start" x="2677" y="901.5" font-family="Crimson Text" font-size="50" stroke="none" stroke-width="0" fill="#222222">Vietnam</text></g><path d="M2558,884L2658,884" stroke="#cfd8dd" stroke-width="15" fill-opacity="1" fill="none"></path><circle cx="2608" cy="884" r="25" stroke="none" stroke-width="0" fill-opacity="0" fill="#cfd8dd"></circle></g><g><rect x="2558" y="940" width="492" height="50" stroke="none" stroke-width="0" fill-opacity="0" fill="#ffffff"></rect><g><text text-anchor="start" x="2677" y="982.5" font-family="Crimson Text" font-size="50" stroke="none" stroke-width="0" fill="#222222">Filipina</text></g><path d="M2558,965L2658,965" stroke="#bdbdbd" stroke-width="15" fill-opacity="1" fill="none"></path><circle cx="2608" cy="965" r="25" stroke="none" stroke-width="0" fill-opacity="0" fill="#bdbdbd"></circle></g><g><rect x="2558" y="1021" width="492" height="50" stroke="none" stroke-width="0" fill-opacity="0" fill="#ffffff"></rect><g><text text-anchor="start" x="2677" y="1063.5" font-family="Crimson Text" font-size="50" stroke="none" stroke-width="0" fill="#222222">Kamboja</text></g><path d="M2558,1046L2658,1046" stroke="#cfd8dd" stroke-width="15" fill-opacity="1" fill="none"></path><circle cx="2608" cy="1046" r="25" stroke="none" stroke-width="0" fill-opacity="0" fill="#cfd8dd"></circle></g><g><rect x="2558" y="1102" width="492" height="50" stroke="none" stroke-width="0" fill-opacity="0" fill="#ffffff"></rect><g><text text-anchor="start" x="2677" y="1144.5" font-family="Crimson Text" font-size="50" stroke="none" stroke-width="0" fill="#222222">Laos</text></g><path d="M2558,1127L2658,1127" stroke="#bdbdbd" stroke-width="15" fill-opacity="1" fill="none"></path><circle cx="2608" cy="1127" r="25" stroke="none" stroke-width="0" fill-opacity="0" fill="#bdbdbd"></circle></g><g><rect x="2558" y="1183" width="492" height="50" stroke="none" stroke-width="0" fill-opacity="0" fill="#ffffff"></rect><g><text text-anchor="start" x="2677" y="1225.5" font-family="Crimson Text" font-size="50" stroke="none" stroke-width="0" fill="#222222">Myanmar</text></g><path d="M2558,1208L2658,1208" stroke="#cfd8dd" stroke-width="15" fill-opacity="1" fill="none"></path><circle cx="2608" cy="1208" r="25" stroke="none" stroke-width="0" fill-opacity="0" fill="#cfd8dd"></circle></g><g><rect x="2558" y="1264" width="492" height="50" stroke="none" stroke-width="0" fill-opacity="0" fill="#ffffff"></rect><g><text text-anchor="start" x="2677" y="1306.5" font-family="Crimson Text" font-size="50" stroke="none" stroke-width="0" fill="#222222">Brunei Darussalam</text></g><path d="M2558,1289L2658,1289" stroke="#bdbdbd" stroke-width="15" fill-opacity="1" fill="none"></path><circle cx="2608" cy="1289" r="25" stroke="none" stroke-width="0" fill-opacity="0" fill="#bdbdbd"></circle></g></g><g><rect x="592" y="535" width="1916" height="1731" stroke="none" stroke-width="0" fill-opacity="0" fill="#ffffff"></rect><g><g><rect x="592" y="2265" width="1916" height="1" stroke="none" stroke-width="0" fill="#333333"></rect></g><g><path d="M712.1875,1499.6674444444443L951.5625,1341.3690805555555L1190.9375,1191.2707725L1430.3125,989.7823819444443L1669.6875,1073.2569002777777L1909.0625,829.5475713888889L2148.4375,699.450994722222L2387.8125,565.236297222222" stroke="#bdbdbd" stroke-width="15" fill-opacity="1" fill="none"></path><path d="M712.1875,1084.4291922222221L951.5625,1077.83943L1190.9375,1062.53931L1430.3125,1029.7292833333333L1669.6875,946.984584722222L1909.0625,1029.450993611111L2148.4375,979.6586622222221L2387.8125,1018.5323869444444" stroke="#cfd8dd" stroke-width="15" fill-opacity="1" fill="none"></path><path d="M712.1875,1706.0516388888889L951.5625,1632.5457169444444L1190.9375,1568.882293611111L1430.3125,1517.3748113888887L1669.6875,1540.0940844444444L1909.0625,1533.5432952777778L2148.4375,1477.2642808333333L2387.8125,1428.2364172222221" stroke="#bdbdbd" stroke-width="15" fill-opacity="1" fill="none"></path><path d="M712.1875,1928.9696355555557L951.5625,1897.8879269444444L1190.9375,1878.9189094444444L1430.3125,1842.5088008333332L1669.6875,1812.0760825L1909.0625,1765.3974147222223L2148.4375,1711.9348402777778L2387.8125,1590.8096591666667" stroke="#ff0000" stroke-width="25" fill-opacity="1" fill="none"></path><path d="M712.1875,2022.8264125L951.5625,1976.492351111111L1190.9375,1936.4310294444444L1430.3125,1901.6064177777778L1669.6875,1887.0955622222223L1909.0625,1883.7634380555555L2148.4375,1784.3324569444444L2387.8125,1644.5188547222222" stroke="#cfd8dd" stroke-width="15" fill-opacity="1" fill="none"></path><path d="M712.1875,2096.321810277778L951.5625,2077.2445716666666L1190.9375,2060.167693611111L1430.3125,2040.537191388889L1669.6875,2033.2298155555554L1909.0625,2007.8894483333333L2148.4375,1978.7522597222223L2387.8125,1947.3285877777778" stroke="#bdbdbd" stroke-width="15" fill-opacity="1" fill="none"></path><path d="M712.1875,2144.962778611111L951.5625,2127.0105205555556L1190.9375,2093.2541358333333L1430.3125,2063.1781819444445L1669.6875,2049.116645833333L1909.0625,2036.0236213888888L2148.4375,2024.6593955555554L2387.8125,1996.2852330555556" stroke="#cfd8dd" stroke-width="15" fill-opacity="1" fill="none"></path><path d="M712.1875,2144.735043333333L951.5625,2134.617618888889L1190.9375,2105.47154L1430.3125,2083.8745083333333L1669.6875,2065.6504480555554L1909.0625,2040.3871619444444L2148.4375,2061.7902413888887L2387.8125,2080.0055555555555" stroke="#bdbdbd" stroke-width="15" fill-opacity="1" fill="none"></path><path d="M712.1875,2227.4637875L951.5625,2226.2689341666664L1190.9375,2214.6094069444443L1430.3125,2167.2596913888888L1669.6875,2117.4210344444446L1909.0625,2040.5509833333333L2148.4375,2125.7925525L2387.8125,2100.0383308333335" stroke="#cfd8dd" stroke-width="15" fill-opacity="1" fill="none"></path><path d="M712.1875,2255.202175L951.5625,2253.8676241666667L1190.9375,2255.451198888889L1430.3125,2254.6921133333335L1669.6875,2255.8413619444445L1909.0625,2255.0136530555556L2148.4375,2254.9850119444445L2387.8125,2253.055773611111" stroke="#bdbdbd" stroke-width="15" fill-opacity="1" fill="none"></path></g><g><rect x="712.1875" y="1916.9696355555557" width="1" height="12" stroke="none" stroke-width="0" fill="#999999"></rect><rect x="951.5625" y="1885.8879269444444" width="1" height="12" stroke="none" stroke-width="0" fill="#999999"></rect><rect x="1190.9375" y="1866.9189094444444" width="1" height="12" stroke="none" stroke-width="0" fill="#999999"></rect><rect x="1430.3125" y="1830.5088008333332" width="1" height="12" stroke="none" stroke-width="0" fill="#999999"></rect><rect x="1669.6875" y="1800.0760825" width="1" height="12" stroke="none" stroke-width="0" fill="#999999"></rect><rect x="1909.0625" y="1753.3974147222223" width="1" height="12" stroke="none" stroke-width="0" fill="#999999"></rect><rect x="2148.4375" y="1699.9348402777778" width="1" height="12" stroke="none" stroke-width="0" fill="#999999"></rect><rect x="2387.8125" y="1578.8096591666667" width="1" height="12" stroke="none" stroke-width="0" fill="#999999"></rect></g></g><g><circle cx="712.1875" cy="1499.6674444444443" r="26" stroke="none" stroke-width="0" fill-opacity="0" fill="#bdbdbd"></circle><circle cx="951.5625" cy="1341.3690805555555" r="26" stroke="none" stroke-width="0" fill-opacity="0" fill="#bdbdbd"></circle><circle cx="1190.9375" cy="1191.2707725" r="26" stroke="none" stroke-width="0" fill-opacity="0" fill="#bdbdbd"></circle><circle cx="1430.3125" cy="989.7823819444443" r="26" stroke="none" stroke-width="0" fill-opacity="0" fill="#bdbdbd"></circle><circle cx="1669.6875" cy="1073.2569002777777" r="26" stroke="none" stroke-width="0" fill-opacity="0" fill="#bdbdbd"></circle><circle cx="1909.0625" cy="829.5475713888889" r="26" stroke="none" stroke-width="0" fill-opacity="0" fill="#bdbdbd"></circle><circle cx="2148.4375" cy="699.450994722222" r="26" stroke="none" stroke-width="0" fill-opacity="0" fill="#bdbdbd"></circle><circle cx="2387.8125" cy="565.236297222222" r="26" stroke="none" stroke-width="0" fill-opacity="0" fill="#bdbdbd"></circle><circle cx="712.1875" cy="1084.4291922222221" r="26" stroke="none" stroke-width="0" fill-opacity="0" fill="#cfd8dd"></circle><circle cx="951.5625" cy="1077.83943" r="26" stroke="none" stroke-width="0" fill-opacity="0" fill="#cfd8dd"></circle><circle cx="1190.9375" cy="1062.53931" r="26" stroke="none" stroke-width="0" fill-opacity="0" fill="#cfd8dd"></circle><circle cx="1430.3125" cy="1029.7292833333333" r="26" stroke="none" stroke-width="0" fill-opacity="0" fill="#cfd8dd"></circle><circle cx="1669.6875" cy="946.984584722222" r="26" stroke="none" stroke-width="0" fill-opacity="0" fill="#cfd8dd"></circle><circle cx="1909.0625" cy="1029.450993611111" r="26" stroke="none" stroke-width="0" fill-opacity="0" fill="#cfd8dd"></circle><circle cx="2148.4375" cy="979.6586622222221" r="26" stroke="none" stroke-width="0" fill-opacity="0" fill="#cfd8dd"></circle><circle cx="2387.8125" cy="1018.5323869444444" r="26" stroke="none" stroke-width="0" fill-opacity="0" fill="#cfd8dd"></circle><circle cx="712.1875" cy="1706.0516388888889" r="26" stroke="none" stroke-width="0" fill-opacity="0" fill="#bdbdbd"></circle><circle cx="951.5625" cy="1632.5457169444444" r="26" stroke="none" stroke-width="0" fill-opacity="0" fill="#bdbdbd"></circle><circle cx="1190.9375" cy="1568.882293611111" r="26" stroke="none" stroke-width="0" fill-opacity="0" fill="#bdbdbd"></circle><circle cx="1430.3125" cy="1517.3748113888887" r="26" stroke="none" stroke-width="0" fill-opacity="0" fill="#bdbdbd"></circle><circle cx="1669.6875" cy="1540.0940844444444" r="26" stroke="none" stroke-width="0" fill-opacity="0" fill="#bdbdbd"></circle><circle cx="1909.0625" cy="1533.5432952777778" r="26" stroke="none" stroke-width="0" fill-opacity="0" fill="#bdbdbd"></circle><circle cx="2148.4375" cy="1477.2642808333333" r="26" stroke="none" stroke-width="0" fill-opacity="0" fill="#bdbdbd"></circle><circle cx="2387.8125" cy="1428.2364172222221" r="26" stroke="none" stroke-width="0" fill-opacity="0" fill="#bdbdbd"></circle><circle cx="712.1875" cy="1928.9696355555557" r="26" stroke="none" stroke-width="0" fill="#ff0000"></circle><circle cx="951.5625" cy="1897.8879269444444" r="26" stroke="none" stroke-width="0" fill="#ff0000"></circle><circle cx="1190.9375" cy="1878.9189094444444" r="26" stroke="none" stroke-width="0" fill="#ff0000"></circle><circle cx="1430.3125" cy="1842.5088008333332" r="26" stroke="none" stroke-width="0" fill="#ff0000"></circle><circle cx="1669.6875" cy="1812.0760825" r="26" stroke="none" stroke-width="0" fill="#ff0000"></circle><circle cx="1909.0625" cy="1765.3974147222223" r="26" stroke="none" stroke-width="0" fill="#ff0000"></circle><circle cx="2148.4375" cy="1711.9348402777778" r="26" stroke="none" stroke-width="0" fill="#ff0000"></circle><circle cx="2387.8125" cy="1590.8096591666667" r="26" stroke="none" stroke-width="0" fill="#ff0000"></circle><circle cx="712.1875" cy="2022.8264125" r="26" stroke="none" stroke-width="0" fill-opacity="0" fill="#cfd8dd"></circle><circle cx="951.5625" cy="1976.492351111111" r="26" stroke="none" stroke-width="0" fill-opacity="0" fill="#cfd8dd"></circle><circle cx="1190.9375" cy="1936.4310294444444" r="26" stroke="none" stroke-width="0" fill-opacity="0" fill="#cfd8dd"></circle><circle cx="1430.3125" cy="1901.6064177777778" r="26" stroke="none" stroke-width="0" fill-opacity="0" fill="#cfd8dd"></circle><circle cx="1669.6875" cy="1887.0955622222223" r="26" stroke="none" stroke-width="0" fill-opacity="0" fill="#cfd8dd"></circle><circle cx="1909.0625" cy="1883.7634380555555" r="26" stroke="none" stroke-width="0" fill-opacity="0" fill="#cfd8dd"></circle><circle cx="2148.4375" cy="1784.3324569444444" r="26" stroke="none" stroke-width="0" fill-opacity="0" fill="#cfd8dd"></circle><circle cx="2387.8125" cy="1644.5188547222222" r="26" stroke="none" stroke-width="0" fill-opacity="0" fill="#cfd8dd"></circle><circle cx="712.1875" cy="2096.321810277778" r="26" stroke="none" stroke-width="0" fill-opacity="0" fill="#bdbdbd"></circle><circle cx="951.5625" cy="2077.2445716666666" r="26" stroke="none" stroke-width="0" fill-opacity="0" fill="#bdbdbd"></circle><circle cx="1190.9375" cy="2060.167693611111" r="26" stroke="none" stroke-width="0" fill-opacity="0" fill="#bdbdbd"></circle><circle cx="1430.3125" cy="2040.537191388889" r="26" stroke="none" stroke-width="0" fill-opacity="0" fill="#bdbdbd"></circle><circle cx="1669.6875" cy="2033.2298155555554" r="26" stroke="none" stroke-width="0" fill-opacity="0" fill="#bdbdbd"></circle><circle cx="1909.0625" cy="2007.8894483333333" r="26" stroke="none" stroke-width="0" fill-opacity="0" fill="#bdbdbd"></circle><circle cx="2148.4375" cy="1978.7522597222223" r="26" stroke="none" stroke-width="0" fill-opacity="0" fill="#bdbdbd"></circle><circle cx="2387.8125" cy="1947.3285877777778" r="26" stroke="none" stroke-width="0" fill-opacity="0" fill="#bdbdbd"></circle><circle cx="712.1875" cy="2144.962778611111" r="26" stroke="none" stroke-width="0" fill-opacity="0" fill="#cfd8dd"></circle><circle cx="951.5625" cy="2127.0105205555556" r="26" stroke="none" stroke-width="0" fill-opacity="0" fill="#cfd8dd"></circle><circle cx="1190.9375" cy="2093.2541358333333" r="26" stroke="none" stroke-width="0" fill-opacity="0" fill="#cfd8dd"></circle><circle cx="1430.3125" cy="2063.1781819444445" r="26" stroke="none" stroke-width="0" fill-opacity="0" fill="#cfd8dd"></circle><circle cx="1669.6875" cy="2049.116645833333" r="26" stroke="none" stroke-width="0" fill-opacity="0" fill="#cfd8dd"></circle><circle cx="1909.0625" cy="2036.0236213888888" r="26" stroke="none" stroke-width="0" fill-opacity="0" fill="#cfd8dd"></circle><circle cx="2148.4375" cy="2024.6593955555554" r="26" stroke="none" stroke-width="0" fill-opacity="0" fill="#cfd8dd"></circle><circle cx="2387.8125" cy="1996.2852330555556" r="26" stroke="none" stroke-width="0" fill-opacity="0" fill="#cfd8dd"></circle><circle cx="712.1875" cy="2144.735043333333" r="26" stroke="none" stroke-width="0" fill-opacity="0" fill="#bdbdbd"></circle><circle cx="951.5625" cy="2134.617618888889" r="26" stroke="none" stroke-width="0" fill-opacity="0" fill="#bdbdbd"></circle><circle cx="1190.9375" cy="2105.47154" r="26" stroke="none" stroke-width="0" fill-opacity="0" fill="#bdbdbd"></circle><circle cx="1430.3125" cy="2083.8745083333333" r="26" stroke="none" stroke-width="0" fill-opacity="0" fill="#bdbdbd"></circle><circle cx="1669.6875" cy="2065.6504480555554" r="26" stroke="none" stroke-width="0" fill-opacity="0" fill="#bdbdbd"></circle><circle cx="1909.0625" cy="2040.3871619444444" r="26" stroke="none" stroke-width="0" fill-opacity="0" fill="#bdbdbd"></circle><circle cx="2148.4375" cy="2061.7902413888887" r="26" stroke="none" stroke-width="0" fill-opacity="0" fill="#bdbdbd"></circle><circle cx="2387.8125" cy="2080.0055555555555" r="26" stroke="none" stroke-width="0" fill-opacity="0" fill="#bdbdbd"></circle><circle cx="712.1875" cy="2227.4637875" r="26" stroke="none" stroke-width="0" fill-opacity="0" fill="#cfd8dd"></circle><circle cx="951.5625" cy="2226.2689341666664" r="26" stroke="none" stroke-width="0" fill-opacity="0" fill="#cfd8dd"></circle><circle cx="1190.9375" cy="2214.6094069444443" r="26" stroke="none" stroke-width="0" fill-opacity="0" fill="#cfd8dd"></circle><circle cx="1430.3125" cy="2167.2596913888888" r="26" stroke="none" stroke-width="0" fill-opacity="0" fill="#cfd8dd"></circle><circle cx="1669.6875" cy="2117.4210344444446" r="26" stroke="none" stroke-width="0" fill-opacity="0" fill="#cfd8dd"></circle><circle cx="1909.0625" cy="2040.5509833333333" r="26" stroke="none" stroke-width="0" fill-opacity="0" fill="#cfd8dd"></circle><circle cx="2148.4375" cy="2125.7925525" r="26" stroke="none" stroke-width="0" fill-opacity="0" fill="#cfd8dd"></circle><circle cx="2387.8125" cy="2100.0383308333335" r="26" stroke="none" stroke-width="0" fill-opacity="0" fill="#cfd8dd"></circle><circle cx="712.1875" cy="2255.202175" r="26" stroke="none" stroke-width="0" fill-opacity="0" fill="#bdbdbd"></circle><circle cx="951.5625" cy="2253.8676241666667" r="26" stroke="none" stroke-width="0" fill-opacity="0" fill="#bdbdbd"></circle><circle cx="1190.9375" cy="2255.451198888889" r="26" stroke="none" stroke-width="0" fill-opacity="0" fill="#bdbdbd"></circle><circle cx="1430.3125" cy="2254.6921133333335" r="26" stroke="none" stroke-width="0" fill-opacity="0" fill="#bdbdbd"></circle><circle cx="1669.6875" cy="2255.8413619444445" r="26" stroke="none" stroke-width="0" fill-opacity="0" fill="#bdbdbd"></circle><circle cx="1909.0625" cy="2255.0136530555556" r="26" stroke="none" stroke-width="0" fill-opacity="0" fill="#bdbdbd"></circle><circle cx="2148.4375" cy="2254.9850119444445" r="26" stroke="none" stroke-width="0" fill-opacity="0" fill="#bdbdbd"></circle><circle cx="2387.8125" cy="2253.055773611111" r="26" stroke="none" stroke-width="0" fill-opacity="0" fill="#bdbdbd"></circle></g><g><g><text text-anchor="middle" x="712.1875" y="2339.5" font-family="Crimson Text" font-size="50" stroke="none" stroke-width="0" fill="#222222">2010</text></g><g><text text-anchor="middle" x="951.5625" y="2339.5" font-family="Crimson Text" font-size="50" stroke="none" stroke-width="0" fill="#222222">2011</text></g><g><text text-anchor="middle" x="1190.9375" y="2339.5" font-family="Crimson Text" font-size="50" stroke="none" stroke-width="0" fill="#222222">2012</text></g><g><text text-anchor="middle" x="1430.3125" y="2339.5" font-family="Crimson Text" font-size="50" stroke="none" stroke-width="0" fill="#222222">2013</text></g><g><text text-anchor="middle" x="1669.6875" y="2339.5" font-family="Crimson Text" font-size="50" stroke="none" stroke-width="0" fill="#222222">2014</text></g><g><text text-anchor="middle" x="1909.0625" y="2339.5" font-family="Crimson Text" font-size="50" stroke="none" stroke-width="0" fill="#222222">2015</text></g><g><text text-anchor="middle" x="2148.4375" y="2339.5" font-family="Crimson Text" font-size="50" stroke="none" stroke-width="0" fill="#222222">2016</text></g><g><text text-anchor="middle" x="2387.8125" y="2339.5" font-family="Crimson Text" font-size="50" stroke="none" stroke-width="0" fill="#222222">2017</text></g><g><text text-anchor="end" x="542" y="2283" font-family="Crimson Text" font-size="50" stroke="none" stroke-width="0" fill="#444444">0</text></g><g><text text-anchor="end" x="542" y="2186.8889" font-family="Crimson Text" font-size="50" stroke="none" stroke-width="0" fill="#444444">2,000,000</text></g><g><text text-anchor="end" x="542" y="2090.7778" font-family="Crimson Text" font-size="50" stroke="none" stroke-width="0" fill="#444444">4,000,000</text></g><g><text text-anchor="end" x="542" y="1994.6667" font-family="Crimson Text" font-size="50" stroke="none" stroke-width="0" fill="#444444">6,000,000</text></g><g><text text-anchor="end" x="542" y="1898.5556" font-family="Crimson Text" font-size="50" stroke="none" stroke-width="0" fill="#444444">8,000,000</text></g><g><text text-anchor="end" x="542" y="1802.4444" font-family="Crimson Text" font-size="50" stroke="none" stroke-width="0" fill="#444444">10,000,000</text></g><g><text text-anchor="end" x="542" y="1706.3333" font-family="Crimson Text" font-size="50" stroke="none" stroke-width="0" fill="#444444">12,000,000</text></g><g><text text-anchor="end" x="542" y="1610.2222" font-family="Crimson Text" font-size="50" stroke="none" stroke-width="0" fill="#444444">14,000,000</text></g><g><text text-anchor="end" x="542" y="1514.1111" font-family="Crimson Text" font-size="50" stroke="none" stroke-width="0" fill="#444444">16,000,000</text></g><g><text text-anchor="end" x="542" y="1418" font-family="Crimson Text" font-size="50" stroke="none" stroke-width="0" fill="#444444">18,000,000</text></g><g><text text-anchor="end" x="542" y="1321.8889" font-family="Crimson Text" font-size="50" stroke="none" stroke-width="0" fill="#444444">20,000,000</text></g><g><text text-anchor="end" x="542" y="1225.7778" font-family="Crimson Text" font-size="50" stroke="none" stroke-width="0" fill="#444444">22,000,000</text></g><g><text text-anchor="end" x="542" y="1129.6667" font-family="Crimson Text" font-size="50" stroke="none" stroke-width="0" fill="#444444">24,000,000</text></g><g><text text-anchor="end" x="542" y="1033.5556000000001" font-family="Crimson Text" font-size="50" stroke="none" stroke-width="0" fill="#444444">26,000,000</text></g><g><text text-anchor="end" x="542" y="937.4444" font-family="Crimson Text" font-size="50" stroke="none" stroke-width="0" fill="#444444">28,000,000</text></g><g><text text-anchor="end" x="542" y="841.3333" font-family="Crimson Text" font-size="50" stroke="none" stroke-width="0" fill="#444444">30,000,000</text></g><g><text text-anchor="end" x="542" y="745.2222" font-family="Crimson Text" font-size="50" stroke="none" stroke-width="0" fill="#444444">32,000,000</text></g><g><text text-anchor="end" x="542" y="649.1111" font-family="Crimson Text" font-size="50" stroke="none" stroke-width="0" fill="#444444">34,000,000</text></g><g><text text-anchor="end" x="542" y="553" font-family="Crimson Text" font-size="50" stroke="none" stroke-width="0" fill="#444444">36,000,000</text></g></g><g><g><g><rect x="604.5" y="1865.5" width="217" height="52" stroke="none" stroke-width="0" fill-opacity="0" fill="#ffffff"></rect><g><text text-anchor="middle" x="712.1875" y="1909.4696355555557" font-family="Crimson Text" font-size="50" font-weight="bold" stroke="#ffffff" stroke-width="3" fill="#000000" aria-hidden="true">15,936,400</text><text text-anchor="middle" x="712.1875" y="1909.4696355555557" font-family="Crimson Text" font-size="50" font-weight="bold" stroke="none" stroke-width="0" fill="#000000">15,936,400</text></g><rect x="606.1875" y="1866.9696355555557" width="212" height="50" stroke="none" stroke-width="0" fill-opacity="0" fill="#ffffff"></rect></g></g><g><g><rect x="843.5" y="1834.5" width="217" height="52" stroke="none" stroke-width="0" fill-opacity="0" fill="#ffffff"></rect><g><text text-anchor="middle" x="951.5625" y="1878.3879269444444" font-family="Crimson Text" font-size="50" font-weight="bold" stroke="#ffffff" stroke-width="3" fill="#000000" aria-hidden="true">19,230,470</text><text text-anchor="middle" x="951.5625" y="1878.3879269444444" font-family="Crimson Text" font-size="50" font-weight="bold" stroke="none" stroke-width="0" fill="#000000">19,230,470</text></g><rect x="845.5625" y="1835.8879269444444" width="212" height="50" stroke="none" stroke-width="0" fill-opacity="0" fill="#ffffff"></rect></g></g><g><g><rect x="1082.5" y="1815.5" width="217" height="52" stroke="none" stroke-width="0" fill-opacity="0" fill="#ffffff"></rect><g><text text-anchor="middle" x="1190.9375" y="1859.4189094444444" font-family="Crimson Text" font-size="50" font-weight="bold" stroke="#ffffff" stroke-width="3" fill="#000000" aria-hidden="true">22,353,903</text><text text-anchor="middle" x="1190.9375" y="1859.4189094444444" font-family="Crimson Text" font-size="50" font-weight="bold" stroke="none" stroke-width="0" fill="#000000">22,353,903</text></g><rect x="1084.9375" y="1816.9189094444444" width="212" height="50" stroke="none" stroke-width="0" fill-opacity="0" fill="#ffffff"></rect></g></g><g><g><rect x="1322.5" y="1779.5" width="217" height="52" stroke="none" stroke-width="0" fill-opacity="0" fill="#ffffff"></rect><g><text text-anchor="middle" x="1430.3125" y="1823.0088008333332" font-family="Crimson Text" font-size="50" font-weight="bold" stroke="#ffffff" stroke-width="3" fill="#000000" aria-hidden="true">26,546,725</text><text text-anchor="middle" x="1430.3125" y="1823.0088008333332" font-family="Crimson Text" font-size="50" font-weight="bold" stroke="none" stroke-width="0" fill="#000000">26,546,725</text></g><rect x="1324.3125" y="1780.5088008333332" width="212" height="50" stroke="none" stroke-width="0" fill-opacity="0" fill="#ffffff"></rect></g></g><g><g><rect x="1561.5" y="1749.5" width="217" height="52" stroke="none" stroke-width="0" fill-opacity="0" fill="#ffffff"></rect><g><text text-anchor="middle" x="1669.6875" y="1792.5760825" font-family="Crimson Text" font-size="50" font-weight="bold" stroke="#ffffff" stroke-width="3" fill="#000000" aria-hidden="true">24,809,683</text><text text-anchor="middle" x="1669.6875" y="1792.5760825" font-family="Crimson Text" font-size="50" font-weight="bold" stroke="none" stroke-width="0" fill="#000000">24,809,683</text></g><rect x="1563.6875" y="1750.0760825" width="212" height="50" stroke="none" stroke-width="0" fill-opacity="0" fill="#ffffff"></rect></g></g><g><g><rect x="1801.5" y="1702.5" width="217" height="52" stroke="none" stroke-width="0" fill-opacity="0" fill="#ffffff"></rect><g><text text-anchor="middle" x="1909.0625" y="1745.8974147222223" font-family="Crimson Text" font-size="50" font-weight="bold" stroke="#ffffff" stroke-width="3" fill="#000000" aria-hidden="true">29,881,091</text><text text-anchor="middle" x="1909.0625" y="1745.8974147222223" font-family="Crimson Text" font-size="50" font-weight="bold" stroke="none" stroke-width="0" fill="#000000">29,881,091</text></g><rect x="1803.0625" y="1703.3974147222223" width="212" height="50" stroke="none" stroke-width="0" fill-opacity="0" fill="#ffffff"></rect></g></g><g><g><rect x="2040.5" y="1648.5" width="217" height="52" stroke="none" stroke-width="0" fill-opacity="0" fill="#ffffff"></rect><g><text text-anchor="middle" x="2148.4375" y="1692.4348402777778" font-family="Crimson Text" font-size="50" font-weight="bold" stroke="#ffffff" stroke-width="3" fill="#000000" aria-hidden="true">32,588,303</text><text text-anchor="middle" x="2148.4375" y="1692.4348402777778" font-family="Crimson Text" font-size="50" font-weight="bold" stroke="none" stroke-width="0" fill="#000000">32,588,303</text></g><rect x="2042.4375" y="1649.9348402777778" width="212" height="50" stroke="none" stroke-width="0" fill-opacity="0" fill="#ffffff"></rect></g></g><g><g><rect x="2279.5" y="1527.5" width="217" height="52" stroke="none" stroke-width="0" fill-opacity="0" fill="#ffffff"></rect><g><text text-anchor="middle" x="2387.8125" y="1571.3096591666667" font-family="Crimson Text" font-size="50" font-weight="bold" stroke="#ffffff" stroke-width="3" fill="#000000" aria-hidden="true">35,381,210</text><text text-anchor="middle" x="2387.8125" y="1571.3096591666667" font-family="Crimson Text" font-size="50" font-weight="bold" stroke="none" stroke-width="0" fill="#000000">35,381,210</text></g><rect x="2281.8125" y="1528.8096591666667" width="212" height="50" stroke="none" stroke-width="0" fill-opacity="0" fill="#ffffff"></rect></g></g></g></g><g></g></svg>