<svg width="1100" height="600" aria-label="A chart." style="overflow: hidden;"><defs id="_ABSTRACT_RENDERER_ID_0"><clipPath id="_ABSTRACT_RENDERER_ID_1"><rect x="194" y="115" width="713" height="371"></rect></clipPath></defs><rect x="0" y="0" width="1100" height="600" stroke="none" stroke-width="0" fill="#ffffff"></rect><g><rect x="922" y="115" width="163" height="231" stroke="none" stroke-width="0" fill-opacity="0" fill="#ffffff"></rect><g><rect x="922" y="115" width="163" height="15" stroke="none" stroke-width="0" fill-opacity="0" fill="#ffffff"></rect><g><text text-anchor="start" x="958" y="127.75" font-family="Crimson Text" font-size="15" stroke="none" stroke-width="0" fill="#222222">Indonesia</text></g><path d="M922,122.5L952,122.5" stroke="#ff0000" stroke-width="3" fill-opacity="1" fill="none"></path><circle cx="937" cy="122.5" r="6" stroke="none" stroke-width="0" fill="#ff0000"></circle></g><g><rect x="922" y="139" width="163" height="15" stroke="none" stroke-width="0" fill-opacity="0" fill="#ffffff"></rect><g><text text-anchor="start" x="958" y="151.75" font-family="Crimson Text" font-size="15" stroke="none" stroke-width="0" fill="#222222">Malaysia</text></g><path d="M922,146.5L952,146.5" stroke="#ed9c61" stroke-width="2" fill-opacity="1" fill="none"></path><circle cx="937" cy="146.5" r="6" stroke="none" stroke-width="0" fill-opacity="0" fill="#ed9c61"></circle></g><g><rect x="922" y="163" width="163" height="15" stroke="none" stroke-width="0" fill-opacity="0" fill="#ffffff"></rect><g><text text-anchor="start" x="958" y="175.75" font-family="Crimson Text" font-size="15" stroke="none" stroke-width="0" fill="#222222">Thailand</text></g><path d="M922,170.5L952,170.5" stroke="#f4d45d" stroke-width="2" fill-opacity="1" fill="none"></path><circle cx="937" cy="170.5" r="6" stroke="none" stroke-width="0" fill-opacity="0" fill="#f4d45d"></circle></g><g><rect x="922" y="187" width="163" height="15" stroke="none" stroke-width="0" fill-opacity="0" fill="#ffffff"></rect><g><text text-anchor="start" x="958" y="199.75" font-family="Crimson Text" font-size="15" stroke="none" stroke-width="0" fill="#222222">Singapura</text></g><path d="M922,194.5L952,194.5" stroke="#a2ce84" stroke-width="2" fill-opacity="1" fill="none"></path><circle cx="937" cy="194.5" r="6" stroke="none" stroke-width="0" fill-opacity="0" fill="#a2ce84"></circle></g><g><rect x="922" y="211" width="163" height="15" stroke="none" stroke-width="0" fill-opacity="0" fill="#ffffff"></rect><g><text text-anchor="start" x="958" y="223.75" font-family="Crimson Text" font-size="15" stroke="none" stroke-width="0" fill="#222222">Vietnam</text></g><path d="M922,218.5L952,218.5" stroke="#9acee2" stroke-width="2" fill-opacity="1" fill="none"></path><circle cx="937" cy="218.5" r="6" stroke="none" stroke-width="0" fill-opacity="0" fill="#9acee2"></circle></g><g><rect x="922" y="235" width="163" height="15" stroke="none" stroke-width="0" fill-opacity="0" fill="#ffffff"></rect><g><text text-anchor="start" x="958" y="247.75" font-family="Crimson Text" font-size="15" stroke="none" stroke-width="0" fill="#222222">Filipina</text></g><path d="M922,242.5L952,242.5" stroke="#9ea0ef" stroke-width="2" fill-opacity="1" fill="none"></path><circle cx="937" cy="242.5" r="6" stroke="none" stroke-width="0" fill-opacity="0" fill="#9ea0ef"></circle></g><g><rect x="922" y="259" width="163" height="15" stroke="none" stroke-width="0" fill-opacity="0" fill="#ffffff"></rect><g><text text-anchor="start" x="958" y="271.75" font-family="Crimson Text" font-size="15" stroke="none" stroke-width="0" fill="#222222">Laos</text></g><path d="M922,266.5L952,266.5" stroke="#f4a6da" stroke-width="2" fill-opacity="1" fill="none"></path><circle cx="937" cy="266.5" r="6" stroke="none" stroke-width="0" fill-opacity="0" fill="#f4a6da"></circle></g><g><rect x="922" y="283" width="163" height="15" stroke="none" stroke-width="0" fill-opacity="0" fill="#ffffff"></rect><g><text text-anchor="start" x="958" y="295.75" font-family="Crimson Text" font-size="15" stroke="none" stroke-width="0" fill="#222222">Kamboja</text></g><path d="M922,290.5L952,290.5" stroke="#a6f4be" stroke-width="2" fill-opacity="1" fill="none"></path><circle cx="937" cy="290.5" r="6" stroke="none" stroke-width="0" fill-opacity="0" fill="#a6f4be"></circle></g><g><rect x="922" y="307" width="163" height="15" stroke="none" stroke-width="0" fill-opacity="0" fill="#ffffff"></rect><g><text text-anchor="start" x="958" y="319.75" font-family="Crimson Text" font-size="15" stroke="none" stroke-width="0" fill="#222222">Myanmar</text></g><path d="M922,314.5L952,314.5" stroke="#ddc290" stroke-width="2" fill-opacity="1" fill="none"></path><circle cx="937" cy="314.5" r="6" stroke="none" stroke-width="0" fill-opacity="0" fill="#ddc290"></circle></g><g><rect x="922" y="331" width="163" height="15" stroke="none" stroke-width="0" fill-opacity="0" fill="#ffffff"></rect><g><text text-anchor="start" x="958" y="343.75" font-family="Crimson Text" font-size="15" stroke="none" stroke-width="0" fill="#222222">Brunei Darussalam</text></g><path d="M922,338.5L952,338.5" stroke="#c9e25f" stroke-width="2" fill-opacity="1" fill="none"></path><circle cx="937" cy="338.5" r="6" stroke="none" stroke-width="0" fill-opacity="0" fill="#c9e25f"></circle></g></g><g><rect x="194" y="115" width="713" height="371" stroke="none" stroke-width="0" fill-opacity="0" fill="#ffffff"></rect><g><g><rect x="194" y="485" width="713" height="1" stroke="none" stroke-width="0" fill="#cccccc"></rect><rect x="194" y="439" width="713" height="1" stroke="none" stroke-width="0" fill="#cccccc"></rect><rect x="194" y="393" width="713" height="1" stroke="none" stroke-width="0" fill="#cccccc"></rect><rect x="194" y="346" width="713" height="1" stroke="none" stroke-width="0" fill="#cccccc"></rect><rect x="194" y="300" width="713" height="1" stroke="none" stroke-width="0" fill="#cccccc"></rect><rect x="194" y="254" width="713" height="1" stroke="none" stroke-width="0" fill="#cccccc"></rect><rect x="194" y="208" width="713" height="1" stroke="none" stroke-width="0" fill="#cccccc"></rect><rect x="194" y="161" width="713" height="1" stroke="none" stroke-width="0" fill="#cccccc"></rect><rect x="194" y="115" width="713" height="1" stroke="none" stroke-width="0" fill="#cccccc"></rect><rect x="194" y="462" width="713" height="1" stroke="none" stroke-width="0" fill="#ebebeb"></rect><rect x="194" y="416" width="713" height="1" stroke="none" stroke-width="0" fill="#ebebeb"></rect><rect x="194" y="369" width="713" height="1" stroke="none" stroke-width="0" fill="#ebebeb"></rect><rect x="194" y="323" width="713" height="1" stroke="none" stroke-width="0" fill="#ebebeb"></rect><rect x="194" y="277" width="713" height="1" stroke="none" stroke-width="0" fill="#ebebeb"></rect><rect x="194" y="231" width="713" height="1" stroke="none" stroke-width="0" fill="#ebebeb"></rect><rect x="194" y="184" width="713" height="1" stroke="none" stroke-width="0" fill="#ebebeb"></rect><rect x="194" y="138" width="713" height="1" stroke="none" stroke-width="0" fill="#ebebeb"></rect></g><g><rect x="194" y="485" width="713" height="1" stroke="none" stroke-width="0" fill="#333333"></rect></g><g><path d="M239,420.722768L328,414.73998825L417,411.0887265L506,404.08030675L595,398.22244825L684,389.23747925L773,378.94670625000003L862,355.63185925000005" stroke="#ff0000" stroke-width="3" fill-opacity="1" fill="none"></path><path d="M239,258.160937L328,256.89250300000003L417,253.947451L506,247.63199500000002L595,231.70483625L684,247.57842825L773,237.994124L862,245.47675425" stroke="#ed9c61" stroke-width="2" fill-opacity="1" fill="none"></path><path d="M239,338.0883L328,307.6181525L417,278.72639725L506,239.94279375000002L595,256.01043225L684,209.09990825L773,184.05819725000003L862,158.22380750000002" stroke="#f4d45d" stroke-width="2" fill-opacity="1" fill="none"></path><path d="M239,377.814275L328,363.66544725L417,351.41115824999997L506,341.49671225L595,345.869844L684,344.60891175L773,333.77601475L862,324.3388595" stroke="#a2ce84" stroke-width="2" fill-opacity="1" fill="none"></path><path d="M239,438.78884125L328,429.870204L417,422.1589785L506,415.455744L595,412.662614L684,412.02122825000004L773,392.88220125L862,365.97010325" stroke="#9acee2" stroke-width="2" fill-opacity="1" fill="none"></path><path d="M239,452.93564325L328,449.2635505L417,445.97649825L506,442.19791025L595,440.791346L684,435.9136915L773,430.30520375000003L862,424.256601" stroke="#9ea0ef" stroke-width="2" fill-opacity="1" fill="none"></path><path d="M239,462.25449100000003L328,460.307033L417,454.696834L506,450.5397175L595,447.03184925L684,442.16903175L773,446.28881524999997L862,449.795" stroke="#f4a6da" stroke-width="2" fill-opacity="1" fill="none"></path><path d="M239,462.29832675L328,458.8427765L417,452.34516025L506,446.55597375L595,443.84933125L684,441.32911325L773,439.141664L862,433.68004774999997" stroke="#a6f4be" stroke-width="2" fill-opacity="1" fill="none"></path><path d="M239,478.17857875L328,477.94858675L417,475.70429625L506,466.59016025L595,456.996939L684,442.200565L773,458.60833525L862,453.65101975" stroke="#ddc290" stroke-width="2" fill-opacity="1" fill="none"></path><path d="M239,483.5178175L328,483.26093575L417,483.565751L506,483.419638L595,483.64085175L684,483.48152975L773,483.47601675L862,483.10466625" stroke="#c9e25f" stroke-width="2" fill-opacity="1" fill="none"></path></g><g><rect x="239" y="408.722768" width="1" height="12" stroke="none" stroke-width="0" fill="#999999"></rect><rect x="328" y="402.73998825" width="1" height="12" stroke="none" stroke-width="0" fill="#999999"></rect><rect x="417" y="399.0887265" width="1" height="12" stroke="none" stroke-width="0" fill="#999999"></rect><rect x="506" y="392.08030675" width="1" height="12" stroke="none" stroke-width="0" fill="#999999"></rect><rect x="595" y="386.22244825" width="1" height="12" stroke="none" stroke-width="0" fill="#999999"></rect><rect x="684" y="377.23747925" width="1" height="12" stroke="none" stroke-width="0" fill="#999999"></rect><rect x="773" y="366.94670625000003" width="1" height="12" stroke="none" stroke-width="0" fill="#999999"></rect><rect x="862" y="343.63185925000005" width="1" height="12" stroke="none" stroke-width="0" fill="#999999"></rect></g></g><g><circle cx="239" cy="420.722768" r="6" stroke="none" stroke-width="0" fill="#ff0000"></circle><circle cx="328" cy="414.73998825" r="6" stroke="none" stroke-width="0" fill="#ff0000"></circle><circle cx="417" cy="411.0887265" r="6" stroke="none" stroke-width="0" fill="#ff0000"></circle><circle cx="506" cy="404.08030675" r="6" stroke="none" stroke-width="0" fill="#ff0000"></circle><circle cx="595" cy="398.22244825" r="6" stroke="none" stroke-width="0" fill="#ff0000"></circle><circle cx="684" cy="389.23747925" r="6" stroke="none" stroke-width="0" fill="#ff0000"></circle><circle cx="773" cy="378.94670625000003" r="6" stroke="none" stroke-width="0" fill="#ff0000"></circle><circle cx="862" cy="355.63185925000005" r="6" stroke="none" stroke-width="0" fill="#ff0000"></circle><circle cx="239" cy="258.160937" r="6" stroke="none" stroke-width="0" fill-opacity="0" fill="#ed9c61"></circle><circle cx="328" cy="256.89250300000003" r="6" stroke="none" stroke-width="0" fill-opacity="0" fill="#ed9c61"></circle><circle cx="417" cy="253.947451" r="6" stroke="none" stroke-width="0" fill-opacity="0" fill="#ed9c61"></circle><circle cx="506" cy="247.63199500000002" r="6" stroke="none" stroke-width="0" fill-opacity="0" fill="#ed9c61"></circle><circle cx="595" cy="231.70483625" r="6" stroke="none" stroke-width="0" fill-opacity="0" fill="#ed9c61"></circle><circle cx="684" cy="247.57842825" r="6" stroke="none" stroke-width="0" fill-opacity="0" fill="#ed9c61"></circle><circle cx="773" cy="237.994124" r="6" stroke="none" stroke-width="0" fill-opacity="0" fill="#ed9c61"></circle><circle cx="862" cy="245.47675425" r="6" stroke="none" stroke-width="0" fill-opacity="0" fill="#ed9c61"></circle><circle cx="239" cy="338.0883" r="6" stroke="none" stroke-width="0" fill-opacity="0" fill="#f4d45d"></circle><circle cx="328" cy="307.6181525" r="6" stroke="none" stroke-width="0" fill-opacity="0" fill="#f4d45d"></circle><circle cx="417" cy="278.72639725" r="6" stroke="none" stroke-width="0" fill-opacity="0" fill="#f4d45d"></circle><circle cx="506" cy="239.94279375000002" r="6" stroke="none" stroke-width="0" fill-opacity="0" fill="#f4d45d"></circle><circle cx="595" cy="256.01043225" r="6" stroke="none" stroke-width="0" fill-opacity="0" fill="#f4d45d"></circle><circle cx="684" cy="209.09990825" r="6" stroke="none" stroke-width="0" fill-opacity="0" fill="#f4d45d"></circle><circle cx="773" cy="184.05819725000003" r="6" stroke="none" stroke-width="0" fill-opacity="0" fill="#f4d45d"></circle><circle cx="862" cy="158.22380750000002" r="6" stroke="none" stroke-width="0" fill-opacity="0" fill="#f4d45d"></circle><circle cx="239" cy="377.814275" r="6" stroke="none" stroke-width="0" fill-opacity="0" fill="#a2ce84"></circle><circle cx="328" cy="363.66544725" r="6" stroke="none" stroke-width="0" fill-opacity="0" fill="#a2ce84"></circle><circle cx="417" cy="351.41115824999997" r="6" stroke="none" stroke-width="0" fill-opacity="0" fill="#a2ce84"></circle><circle cx="506" cy="341.49671225" r="6" stroke="none" stroke-width="0" fill-opacity="0" fill="#a2ce84"></circle><circle cx="595" cy="345.869844" r="6" stroke="none" stroke-width="0" fill-opacity="0" fill="#a2ce84"></circle><circle cx="684" cy="344.60891175" r="6" stroke="none" stroke-width="0" fill-opacity="0" fill="#a2ce84"></circle><circle cx="773" cy="333.77601475" r="6" stroke="none" stroke-width="0" fill-opacity="0" fill="#a2ce84"></circle><circle cx="862" cy="324.3388595" r="6" stroke="none" stroke-width="0" fill-opacity="0" fill="#a2ce84"></circle><circle cx="239" cy="438.78884125" r="6" stroke="none" stroke-width="0" fill-opacity="0" fill="#9acee2"></circle><circle cx="328" cy="429.870204" r="6" stroke="none" stroke-width="0" fill-opacity="0" fill="#9acee2"></circle><circle cx="417" cy="422.1589785" r="6" stroke="none" stroke-width="0" fill-opacity="0" fill="#9acee2"></circle><circle cx="506" cy="415.455744" r="6" stroke="none" stroke-width="0" fill-opacity="0" fill="#9acee2"></circle><circle cx="595" cy="412.662614" r="6" stroke="none" stroke-width="0" fill-opacity="0" fill="#9acee2"></circle><circle cx="684" cy="412.02122825000004" r="6" stroke="none" stroke-width="0" fill-opacity="0" fill="#9acee2"></circle><circle cx="773" cy="392.88220125" r="6" stroke="none" stroke-width="0" fill-opacity="0" fill="#9acee2"></circle><circle cx="862" cy="365.97010325" r="6" stroke="none" stroke-width="0" fill-opacity="0" fill="#9acee2"></circle><circle cx="239" cy="452.93564325" r="6" stroke="none" stroke-width="0" fill-opacity="0" fill="#9ea0ef"></circle><circle cx="328" cy="449.2635505" r="6" stroke="none" stroke-width="0" fill-opacity="0" fill="#9ea0ef"></circle><circle cx="417" cy="445.97649825" r="6" stroke="none" stroke-width="0" fill-opacity="0" fill="#9ea0ef"></circle><circle cx="506" cy="442.19791025" r="6" stroke="none" stroke-width="0" fill-opacity="0" fill="#9ea0ef"></circle><circle cx="595" cy="440.791346" r="6" stroke="none" stroke-width="0" fill-opacity="0" fill="#9ea0ef"></circle><circle cx="684" cy="435.9136915" r="6" stroke="none" stroke-width="0" fill-opacity="0" fill="#9ea0ef"></circle><circle cx="773" cy="430.30520375000003" r="6" stroke="none" stroke-width="0" fill-opacity="0" fill="#9ea0ef"></circle><circle cx="862" cy="424.256601" r="6" stroke="none" stroke-width="0" fill-opacity="0" fill="#9ea0ef"></circle><circle cx="239" cy="462.25449100000003" r="6" stroke="none" stroke-width="0" fill-opacity="0" fill="#f4a6da"></circle><circle cx="328" cy="460.307033" r="6" stroke="none" stroke-width="0" fill-opacity="0" fill="#f4a6da"></circle><circle cx="417" cy="454.696834" r="6" stroke="none" stroke-width="0" fill-opacity="0" fill="#f4a6da"></circle><circle cx="506" cy="450.5397175" r="6" stroke="none" stroke-width="0" fill-opacity="0" fill="#f4a6da"></circle><circle cx="595" cy="447.03184925" r="6" stroke="none" stroke-width="0" fill-opacity="0" fill="#f4a6da"></circle><circle cx="684" cy="442.16903175" r="6" stroke="none" stroke-width="0" fill-opacity="0" fill="#f4a6da"></circle><circle cx="773" cy="446.28881524999997" r="6" stroke="none" stroke-width="0" fill-opacity="0" fill="#f4a6da"></circle><circle cx="862" cy="449.795" r="6" stroke="none" stroke-width="0" fill-opacity="0" fill="#f4a6da"></circle><circle cx="239" cy="462.29832675" r="6" stroke="none" stroke-width="0" fill-opacity="0" fill="#a6f4be"></circle><circle cx="328" cy="458.8427765" r="6" stroke="none" stroke-width="0" fill-opacity="0" fill="#a6f4be"></circle><circle cx="417" cy="452.34516025" r="6" stroke="none" stroke-width="0" fill-opacity="0" fill="#a6f4be"></circle><circle cx="506" cy="446.55597375" r="6" stroke="none" stroke-width="0" fill-opacity="0" fill="#a6f4be"></circle><circle cx="595" cy="443.84933125" r="6" stroke="none" stroke-width="0" fill-opacity="0" fill="#a6f4be"></circle><circle cx="684" cy="441.32911325" r="6" stroke="none" stroke-width="0" fill-opacity="0" fill="#a6f4be"></circle><circle cx="773" cy="439.141664" r="6" stroke="none" stroke-width="0" fill-opacity="0" fill="#a6f4be"></circle><circle cx="862" cy="433.68004774999997" r="6" stroke="none" stroke-width="0" fill-opacity="0" fill="#a6f4be"></circle><circle cx="239" cy="478.17857875" r="6" stroke="none" stroke-width="0" fill-opacity="0" fill="#ddc290"></circle><circle cx="328" cy="477.94858675" r="6" stroke="none" stroke-width="0" fill-opacity="0" fill="#ddc290"></circle><circle cx="417" cy="475.70429625" r="6" stroke="none" stroke-width="0" fill-opacity="0" fill="#ddc290"></circle><circle cx="506" cy="466.59016025" r="6" stroke="none" stroke-width="0" fill-opacity="0" fill="#ddc290"></circle><circle cx="595" cy="456.996939" r="6" stroke="none" stroke-width="0" fill-opacity="0" fill="#ddc290"></circle><circle cx="684" cy="442.200565" r="6" stroke="none" stroke-width="0" fill-opacity="0" fill="#ddc290"></circle><circle cx="773" cy="458.60833525" r="6" stroke="none" stroke-width="0" fill-opacity="0" fill="#ddc290"></circle><circle cx="862" cy="453.65101975" r="6" stroke="none" stroke-width="0" fill-opacity="0" fill="#ddc290"></circle><circle cx="239" cy="483.5178175" r="6" stroke="none" stroke-width="0" fill-opacity="0" fill="#c9e25f"></circle><circle cx="328" cy="483.26093575" r="6" stroke="none" stroke-width="0" fill-opacity="0" fill="#c9e25f"></circle><circle cx="417" cy="483.565751" r="6" stroke="none" stroke-width="0" fill-opacity="0" fill="#c9e25f"></circle><circle cx="506" cy="483.419638" r="6" stroke="none" stroke-width="0" fill-opacity="0" fill="#c9e25f"></circle><circle cx="595" cy="483.64085175" r="6" stroke="none" stroke-width="0" fill-opacity="0" fill="#c9e25f"></circle><circle cx="684" cy="483.48152975" r="6" stroke="none" stroke-width="0" fill-opacity="0" fill="#c9e25f"></circle><circle cx="773" cy="483.47601675" r="6" stroke="none" stroke-width="0" fill-opacity="0" fill="#c9e25f"></circle><circle cx="862" cy="483.10466625" r="6" stroke="none" stroke-width="0" fill-opacity="0" fill="#c9e25f"></circle></g><g><g><text text-anchor="middle" x="239" y="507.75" font-family="Crimson Text" font-size="15" stroke="none" stroke-width="0" fill="#222222">2010</text></g><g><text text-anchor="middle" x="328" y="507.75" font-family="Crimson Text" font-size="15" stroke="none" stroke-width="0" fill="#222222">2011</text></g><g><text text-anchor="middle" x="417" y="507.75" font-family="Crimson Text" font-size="15" stroke="none" stroke-width="0" fill="#222222">2012</text></g><g><text text-anchor="middle" x="506" y="507.75" font-family="Crimson Text" font-size="15" stroke="none" stroke-width="0" fill="#222222">2013</text></g><g><text text-anchor="middle" x="595" y="507.75" font-family="Crimson Text" font-size="15" stroke="none" stroke-width="0" fill="#222222">2014</text></g><g><text text-anchor="middle" x="684" y="507.75" font-family="Crimson Text" font-size="15" stroke="none" stroke-width="0" fill="#222222">2015</text></g><g><text text-anchor="middle" x="773" y="507.75" font-family="Crimson Text" font-size="15" stroke="none" stroke-width="0" fill="#222222">2016</text></g><g><text text-anchor="middle" x="862" y="507.75" font-family="Crimson Text" font-size="15" stroke="none" stroke-width="0" fill="#222222">2017</text></g><g><text text-anchor="end" x="179" y="490.75" font-family="Crimson Text" font-size="15" stroke="none" stroke-width="0" fill="#444444">0</text></g><g><text text-anchor="end" x="179" y="444.5" font-family="Crimson Text" font-size="15" stroke="none" stroke-width="0" fill="#444444">5,000,000</text></g><g><text text-anchor="end" x="179" y="398.25" font-family="Crimson Text" font-size="15" stroke="none" stroke-width="0" fill="#444444">10,000,000</text></g><g><text text-anchor="end" x="179" y="352" font-family="Crimson Text" font-size="15" stroke="none" stroke-width="0" fill="#444444">15,000,000</text></g><g><text text-anchor="end" x="179" y="305.75" font-family="Crimson Text" font-size="15" stroke="none" stroke-width="0" fill="#444444">20,000,000</text></g><g><text text-anchor="end" x="179" y="259.5" font-family="Crimson Text" font-size="15" stroke="none" stroke-width="0" fill="#444444">25,000,000</text></g><g><text text-anchor="end" x="179" y="213.25" font-family="Crimson Text" font-size="15" stroke="none" stroke-width="0" fill="#444444">30,000,000</text></g><g><text text-anchor="end" x="179" y="167" font-family="Crimson Text" font-size="15" stroke="none" stroke-width="0" fill="#444444">35,000,000</text></g><g><text text-anchor="end" x="179" y="120.75" font-family="Crimson Text" font-size="15" stroke="none" stroke-width="0" fill="#444444">40,000,000</text></g></g><g><g><g><rect x="208.5" y="392.5" width="62" height="17" stroke="none" stroke-width="0" fill-opacity="0" fill="#ffffff"></rect><g><text text-anchor="middle" x="239" y="406.472768" font-family="Crimson Text" font-size="15" font-weight="bold" stroke="#ffffff" stroke-width="3" fill="#000000" aria-hidden="true">7,002,944</text><text text-anchor="middle" x="239" y="406.472768" font-family="Crimson Text" font-size="15" font-weight="bold" stroke="none" stroke-width="0" fill="#000000">7,002,944</text></g><rect x="210.5" y="393.722768" width="57" height="15" stroke="none" stroke-width="0" fill-opacity="0" fill="#ffffff"></rect></g></g><g><g><rect x="297.5" y="386.5" width="62" height="17" stroke="none" stroke-width="0" fill-opacity="0" fill="#ffffff"></rect><g><text text-anchor="middle" x="328" y="400.48998825" font-family="Crimson Text" font-size="15" font-weight="bold" stroke="#ffffff" stroke-width="3" fill="#000000" aria-hidden="true">7,649,731</text><text text-anchor="middle" x="328" y="400.48998825" font-family="Crimson Text" font-size="15" font-weight="bold" stroke="none" stroke-width="0" fill="#000000">7,649,731</text></g><rect x="299.5" y="387.73998825" width="57" height="15" stroke="none" stroke-width="0" fill-opacity="0" fill="#ffffff"></rect></g></g><g><g><rect x="386.5" y="383.5" width="62" height="17" stroke="none" stroke-width="0" fill-opacity="0" fill="#ffffff"></rect><g><text text-anchor="middle" x="417" y="396.8387265" font-family="Crimson Text" font-size="15" font-weight="bold" stroke="#ffffff" stroke-width="3" fill="#000000" aria-hidden="true">8,044,462</text><text text-anchor="middle" x="417" y="396.8387265" font-family="Crimson Text" font-size="15" font-weight="bold" stroke="none" stroke-width="0" fill="#000000">8,044,462</text></g><rect x="388.5" y="384.0887265" width="57" height="15" stroke="none" stroke-width="0" fill-opacity="0" fill="#ffffff"></rect></g></g><g><g><rect x="475.5" y="376.5" width="62" height="17" stroke="none" stroke-width="0" fill-opacity="0" fill="#ffffff"></rect><g><text text-anchor="middle" x="506" y="389.83030675" font-family="Crimson Text" font-size="15" font-weight="bold" stroke="#ffffff" stroke-width="3" fill="#000000" aria-hidden="true">8,802,129</text><text text-anchor="middle" x="506" y="389.83030675" font-family="Crimson Text" font-size="15" font-weight="bold" stroke="none" stroke-width="0" fill="#000000">8,802,129</text></g><rect x="477.5" y="377.08030675" width="57" height="15" stroke="none" stroke-width="0" fill-opacity="0" fill="#ffffff"></rect></g></g><g><g><rect x="564.5" y="370.5" width="62" height="17" stroke="none" stroke-width="0" fill-opacity="0" fill="#ffffff"></rect><g><text text-anchor="middle" x="595" y="383.97244825" font-family="Crimson Text" font-size="15" font-weight="bold" stroke="#ffffff" stroke-width="3" fill="#000000" aria-hidden="true">9,435,411</text><text text-anchor="middle" x="595" y="383.97244825" font-family="Crimson Text" font-size="15" font-weight="bold" stroke="none" stroke-width="0" fill="#000000">9,435,411</text></g><rect x="566.5" y="371.22244825" width="57" height="15" stroke="none" stroke-width="0" fill-opacity="0" fill="#ffffff"></rect></g></g><g><g><rect x="649.5" y="361.5" width="70" height="17" stroke="none" stroke-width="0" fill-opacity="0" fill="#ffffff"></rect><g><text text-anchor="middle" x="684" y="374.98747925" font-family="Crimson Text" font-size="15" font-weight="bold" stroke="#ffffff" stroke-width="3" fill="#000000" aria-hidden="true">10,406,759</text><text text-anchor="middle" x="684" y="374.98747925" font-family="Crimson Text" font-size="15" font-weight="bold" stroke="none" stroke-width="0" fill="#000000">10,406,759</text></g><rect x="652" y="362.23747925" width="64" height="15" stroke="none" stroke-width="0" fill-opacity="0" fill="#ffffff"></rect></g></g><g><g><rect x="738.5" y="350.5" width="70" height="17" stroke="none" stroke-width="0" fill-opacity="0" fill="#ffffff"></rect><g><text text-anchor="middle" x="773" y="364.69670625000003" font-family="Crimson Text" font-size="15" font-weight="bold" stroke="#ffffff" stroke-width="3" fill="#000000" aria-hidden="true">11,519,275</text><text text-anchor="middle" x="773" y="364.69670625000003" font-family="Crimson Text" font-size="15" font-weight="bold" stroke="none" stroke-width="0" fill="#000000">11,519,275</text></g><rect x="741" y="351.94670625000003" width="64" height="15" stroke="none" stroke-width="0" fill-opacity="0" fill="#ffffff"></rect></g></g><g><g><rect x="827.5" y="327.5" width="70" height="17" stroke="none" stroke-width="0" fill-opacity="0" fill="#ffffff"></rect><g><text text-anchor="middle" x="862" y="341.38185925000005" font-family="Crimson Text" font-size="15" font-weight="bold" stroke="#ffffff" stroke-width="3" fill="#000000" aria-hidden="true">14,039,799</text><text text-anchor="middle" x="862" y="341.38185925000005" font-family="Crimson Text" font-size="15" font-weight="bold" stroke="none" stroke-width="0" fill="#000000">14,039,799</text></g><rect x="830" y="328.63185925000005" width="64" height="15" stroke="none" stroke-width="0" fill-opacity="0" fill="#ffffff"></rect></g></g></g></g><g></g></svg>